<svg width="69" height="29" viewBox="0 0 69 29" fill="none" xmlns="http://www.w3.org/2000/svg">
<path fill-rule="evenodd" clip-rule="evenodd" d="M24.2658 4.33244L14.2146 0.129272L4.16336 4.33244L0 14.4798L4.16336 24.6271L14.2146 28.8303L24.2658 24.6271L28.4292 14.4798L24.2658 4.33244ZM12.1348 16.2652L7.26063 22.5149L9.82214 24.7107L15.0903 17.9557L19.0822 25.1491L21.9422 23.4047L18.7848 17.7151L24.0905 18.8719L24.7642 15.4757L18.1493 14.0334L22.9863 7.8315L20.4247 5.63574L15.5501 11.8861L11.484 4.55896L8.62404 6.30337L12.1931 12.7348L4.40311 11.0363L3.72941 14.4325L12.1348 16.2652Z" fill="#2E3283"/>
<path fill-rule="evenodd" clip-rule="evenodd" d="M42.0725 13.0698C41.9038 13.0233 41.7389 12.9923 41.5778 12.9769C41.4167 12.9614 41.2595 12.9536 41.1061 12.9536C40.5998 12.9536 40.1741 13.0466 39.829 13.2324C39.4838 13.4182 39.2077 13.6428 39.0006 13.9061C38.7935 14.1694 38.6439 14.4559 38.5519 14.7656C38.4598 15.0754 38.4138 15.3464 38.4138 15.5787V21.5258H34.6401V9.95687H38.2758V11.6295H38.3218C38.6133 11.041 39.0274 10.5609 39.5644 10.1892C40.1013 9.81748 40.7226 9.63164 41.4282 9.63164C41.5816 9.63164 41.7312 9.63938 41.8769 9.65487C42.0227 9.67036 42.1416 9.69359 42.2336 9.72456L42.0725 13.0698Z" fill="#2E3283"/>
<path fill-rule="evenodd" clip-rule="evenodd" d="M51.1747 23.2681C50.9446 23.8721 50.6877 24.4102 50.4039 24.8826C50.1201 25.355 49.7826 25.7576 49.3914 26.0906C49.0002 26.4236 48.54 26.6752 48.0108 26.8456C47.4815 27.016 46.8564 27.1011 46.1354 27.1011C45.7826 27.1011 45.4182 27.0779 45.0424 27.0314C44.6666 26.985 44.3406 26.923 44.0644 26.8456L44.4786 23.6398C44.6627 23.7017 44.866 23.752 45.0884 23.7908C45.3109 23.8295 45.5141 23.8488 45.6982 23.8488C46.2811 23.8488 46.703 23.7133 46.9638 23.4423C47.2246 23.1713 47.447 22.788 47.6311 22.2924L47.9993 21.3399L43.213 9.95688H47.401L49.9552 17.3907H50.0242L52.3023 9.95688H56.3061L51.1747 23.2681Z" fill="#2E3283"/>
<path fill-rule="evenodd" clip-rule="evenodd" d="M65.5254 21.5258V20.0158H65.4794C65.1112 20.6043 64.5858 21.0573 63.9032 21.3748C63.2205 21.6923 62.4957 21.851 61.7286 21.851C60.8696 21.851 60.1026 21.6807 59.4276 21.3399C58.7526 20.9992 58.1812 20.5462 57.7133 19.981C57.2454 19.4157 56.8887 18.7613 56.6433 18.018C56.3978 17.2746 56.2751 16.5002 56.2751 15.6949C56.2751 14.8896 56.4017 14.1191 56.6548 13.3834C56.9079 12.6478 57.2684 12.0012 57.7363 11.4437C58.2042 10.8861 58.7718 10.4447 59.4391 10.1195C60.1064 9.79429 60.8542 9.63167 61.6826 9.63167C62.5264 9.63167 63.2397 9.79429 63.8226 10.1195C64.4056 10.4447 64.8581 10.8009 65.1802 11.1881H65.2263V3.96338H69V21.5258H65.5254ZM65.3874 15.7181C65.3874 15.3464 65.3222 14.9825 65.1918 14.6263C65.0614 14.27 64.8773 13.9526 64.6395 13.6738C64.4017 13.395 64.1141 13.1705 63.7766 13.0001C63.4391 12.8297 63.0556 12.7446 62.6261 12.7446C62.1812 12.7446 61.79 12.8297 61.4525 13.0001C61.115 13.1705 60.8312 13.3912 60.6011 13.6622C60.371 13.9332 60.1984 14.2468 60.0834 14.603C59.9683 14.9592 59.9108 15.3232 59.9108 15.6949C59.9108 16.0666 59.9683 16.4344 60.0834 16.7983C60.1984 17.1623 60.371 17.4836 60.6011 17.7624C60.8312 18.0412 61.115 18.2657 61.4525 18.4361C61.79 18.6065 62.1812 18.6916 62.6261 18.6916C63.0556 18.6916 63.4391 18.6065 63.7766 18.4361C64.1141 18.2657 64.4017 18.0412 64.6395 17.7624C64.8773 17.4836 65.0614 17.1661 65.1918 16.8099C65.3222 16.4537 65.3874 16.0898 65.3874 15.7181Z" fill="#2E3283"/>
</svg>
